%TF.GenerationSoftware,KiCad,Pcbnew,(6.0.11)*%
%TF.CreationDate,2023-02-23T12:45:07+08:00*%
%TF.ProjectId,nand_programmator,6e616e64-5f70-4726-9f67-72616d6d6174,v3.4*%
%TF.SameCoordinates,Original*%
%TF.FileFunction,Soldermask,Top*%
%TF.FilePolarity,Negative*%
%FSLAX46Y46*%
G04 Gerber Fmt 4.6, Leading zero omitted, Abs format (unit mm)*
G04 Created by KiCad (PCBNEW (6.0.11)) date 2023-02-23 12:45:07*
%MOMM*%
%LPD*%
G01*
G04 APERTURE LIST*
G04 Aperture macros list*
%AMRoundRect*
0 Rectangle with rounded corners*
0 $1 Rounding radius*
0 $2 $3 $4 $5 $6 $7 $8 $9 X,Y pos of 4 corners*
0 Add a 4 corners polygon primitive as box body*
4,1,4,$2,$3,$4,$5,$6,$7,$8,$9,$2,$3,0*
0 Add four circle primitives for the rounded corners*
1,1,$1+$1,$2,$3*
1,1,$1+$1,$4,$5*
1,1,$1+$1,$6,$7*
1,1,$1+$1,$8,$9*
0 Add four rect primitives between the rounded corners*
20,1,$1+$1,$2,$3,$4,$5,0*
20,1,$1+$1,$4,$5,$6,$7,0*
20,1,$1+$1,$6,$7,$8,$9,0*
20,1,$1+$1,$8,$9,$2,$3,0*%
%AMFreePoly0*
4,1,22,0.500000,-0.750000,0.000000,-0.750000,0.000000,-0.745033,-0.079941,-0.743568,-0.215256,-0.701293,-0.333266,-0.622738,-0.424486,-0.514219,-0.481581,-0.384460,-0.499164,-0.250000,-0.500000,-0.250000,-0.500000,0.250000,-0.499164,0.250000,-0.499963,0.256109,-0.478152,0.396186,-0.417904,0.524511,-0.324060,0.630769,-0.204165,0.706417,-0.067858,0.745374,0.000000,0.744959,0.000000,0.750000,
0.500000,0.750000,0.500000,-0.750000,0.500000,-0.750000,$1*%
%AMFreePoly1*
4,1,20,0.000000,0.744959,0.073905,0.744508,0.209726,0.703889,0.328688,0.626782,0.421226,0.519385,0.479903,0.390333,0.500000,0.250000,0.500000,-0.250000,0.499851,-0.262216,0.476331,-0.402017,0.414519,-0.529596,0.319384,-0.634700,0.198574,-0.708877,0.061801,-0.746166,0.000000,-0.745033,0.000000,-0.750000,-0.500000,-0.750000,-0.500000,0.750000,0.000000,0.750000,0.000000,0.744959,
0.000000,0.744959,$1*%
G04 Aperture macros list end*
%ADD10R,0.280000X1.500000*%
%ADD11R,1.500000X0.280000*%
%ADD12R,1.700000X1.700000*%
%ADD13O,1.700000X1.700000*%
%ADD14R,2.000000X1.500000*%
%ADD15R,2.000000X3.800000*%
%ADD16RoundRect,0.225000X-0.250000X0.225000X-0.250000X-0.225000X0.250000X-0.225000X0.250000X0.225000X0*%
%ADD17RoundRect,0.225000X0.250000X-0.225000X0.250000X0.225000X-0.250000X0.225000X-0.250000X-0.225000X0*%
%ADD18RoundRect,0.140000X-0.170000X0.140000X-0.170000X-0.140000X0.170000X-0.140000X0.170000X0.140000X0*%
%ADD19RoundRect,0.140000X0.170000X-0.140000X0.170000X0.140000X-0.170000X0.140000X-0.170000X-0.140000X0*%
%ADD20RoundRect,0.140000X-0.140000X-0.170000X0.140000X-0.170000X0.140000X0.170000X-0.140000X0.170000X0*%
%ADD21RoundRect,0.140000X0.140000X0.170000X-0.140000X0.170000X-0.140000X-0.170000X0.140000X-0.170000X0*%
%ADD22RoundRect,0.147500X0.147500X0.172500X-0.147500X0.172500X-0.147500X-0.172500X0.147500X-0.172500X0*%
%ADD23FreePoly0,180.000000*%
%ADD24FreePoly1,180.000000*%
%ADD25RoundRect,0.135000X-0.135000X-0.185000X0.135000X-0.185000X0.135000X0.185000X-0.135000X0.185000X0*%
%ADD26RoundRect,0.135000X0.185000X-0.135000X0.185000X0.135000X-0.185000X0.135000X-0.185000X-0.135000X0*%
%ADD27RoundRect,0.135000X0.135000X0.185000X-0.135000X0.185000X-0.135000X-0.185000X0.135000X-0.185000X0*%
%ADD28FreePoly0,0.000000*%
%ADD29FreePoly1,0.000000*%
%ADD30RoundRect,0.135000X-0.185000X0.135000X-0.185000X-0.135000X0.185000X-0.135000X0.185000X0.135000X0*%
%ADD31R,1.400000X1.200000*%
%ADD32C,0.650000*%
%ADD33R,0.600000X1.450000*%
%ADD34R,0.300000X1.450000*%
%ADD35O,1.000000X1.600000*%
%ADD36O,1.000000X2.100000*%
%ADD37R,1.100000X0.250000*%
G04 APERTURE END LIST*
D10*
%TO.C,U2*%
X17989801Y43877537D03*
X18489801Y43877537D03*
X18989801Y43877537D03*
X19489801Y43877537D03*
X19989801Y43877537D03*
X20489801Y43877537D03*
X20989801Y43877537D03*
X21489801Y43877537D03*
X21989801Y43877537D03*
X22489801Y43877537D03*
X22989801Y43877537D03*
X23489801Y43877537D03*
X23989801Y43877537D03*
X24489801Y43877537D03*
X24989801Y43877537D03*
X25489801Y43877537D03*
X25989801Y43877537D03*
X26489801Y43877537D03*
X26989801Y43877537D03*
X27489801Y43877537D03*
X27989801Y43877537D03*
X28489801Y43877537D03*
X28989801Y43877537D03*
X29489801Y43877537D03*
X29989801Y43877537D03*
D11*
X31889801Y45777537D03*
X31889801Y46277537D03*
X31889801Y46777537D03*
X31889801Y47277537D03*
X31889801Y47777537D03*
X31889801Y48277537D03*
X31889801Y48777537D03*
X31889801Y49277537D03*
X31889801Y49777537D03*
X31889801Y50277537D03*
X31889801Y50777537D03*
X31889801Y51277537D03*
X31889801Y51777537D03*
X31889801Y52277537D03*
X31889801Y52777537D03*
X31889801Y53277537D03*
X31889801Y53777537D03*
X31889801Y54277537D03*
X31889801Y54777537D03*
X31889801Y55277537D03*
X31889801Y55777537D03*
X31889801Y56277537D03*
X31889801Y56777537D03*
X31889801Y57277537D03*
X31889801Y57777537D03*
D10*
X29989801Y59677537D03*
X29489801Y59677537D03*
X28989801Y59677537D03*
X28489801Y59677537D03*
X27989801Y59677537D03*
X27489801Y59677537D03*
X26989801Y59677537D03*
X26489801Y59677537D03*
X25989801Y59677537D03*
X25489801Y59677537D03*
X24989801Y59677537D03*
X24489801Y59677537D03*
X23989801Y59677537D03*
X23489801Y59677537D03*
X22989801Y59677537D03*
X22489801Y59677537D03*
X21989801Y59677537D03*
X21489801Y59677537D03*
X20989801Y59677537D03*
X20489801Y59677537D03*
X19989801Y59677537D03*
X19489801Y59677537D03*
X18989801Y59677537D03*
X18489801Y59677537D03*
X17989801Y59677537D03*
D11*
X16089801Y57777537D03*
X16089801Y57277537D03*
X16089801Y56777537D03*
X16089801Y56277537D03*
X16089801Y55777537D03*
X16089801Y55277537D03*
X16089801Y54777537D03*
X16089801Y54277537D03*
X16089801Y53777537D03*
X16089801Y53277537D03*
X16089801Y52777537D03*
X16089801Y52277537D03*
X16089801Y51777537D03*
X16089801Y51277537D03*
X16089801Y50777537D03*
X16089801Y50277537D03*
X16089801Y49777537D03*
X16089801Y49277537D03*
X16089801Y48777537D03*
X16089801Y48277537D03*
X16089801Y47777537D03*
X16089801Y47277537D03*
X16089801Y46777537D03*
X16089801Y46277537D03*
X16089801Y45777537D03*
%TD*%
D12*
%TO.C,J1*%
X10819801Y71119737D03*
D13*
X8279801Y71119737D03*
X5739801Y71119737D03*
X3199801Y71119737D03*
%TD*%
D12*
%TO.C,J2*%
X44819801Y71145037D03*
D13*
X42279801Y71145037D03*
X39739801Y71145037D03*
%TD*%
%TO.C,J4*%
X45579801Y38569537D03*
X43039801Y38569537D03*
X45579801Y41109537D03*
X43039801Y41109537D03*
X45579801Y43649537D03*
X43039801Y43649537D03*
X45579801Y46189537D03*
X43039801Y46189537D03*
X45579801Y48729537D03*
X43039801Y48729537D03*
X45579801Y51269537D03*
X43039801Y51269537D03*
X45579801Y53809537D03*
X43039801Y53809537D03*
X45579801Y56349537D03*
X43039801Y56349537D03*
X45579801Y58889537D03*
X43039801Y58889537D03*
X45579801Y61429537D03*
X43039801Y61429537D03*
X45579801Y63969537D03*
X43039801Y63969537D03*
X45579801Y66509537D03*
D12*
X43039801Y66509537D03*
%TD*%
%TO.C,J3*%
X2399801Y66509537D03*
D13*
X4939801Y66509537D03*
X2399801Y63969537D03*
X4939801Y63969537D03*
X2399801Y61429537D03*
X4939801Y61429537D03*
X2399801Y58889537D03*
X4939801Y58889537D03*
X2399801Y56349537D03*
X4939801Y56349537D03*
X2399801Y53809537D03*
X4939801Y53809537D03*
X2399801Y51269537D03*
X4939801Y51269537D03*
X2399801Y48729537D03*
X4939801Y48729537D03*
X2399801Y46189537D03*
X4939801Y46189537D03*
X2399801Y43649537D03*
X4939801Y43649537D03*
X2399801Y41109537D03*
X4939801Y41109537D03*
X2399801Y38569537D03*
X4939801Y38569537D03*
%TD*%
D14*
%TO.C,U1*%
X33469801Y67820037D03*
X33469801Y65520037D03*
X33469801Y63220037D03*
D15*
X39769801Y65520037D03*
%TD*%
D16*
%TO.C,C6*%
X36800000Y60225000D03*
X36800000Y58675000D03*
%TD*%
D17*
%TO.C,C3*%
X30119801Y63945037D03*
X30119801Y65495037D03*
%TD*%
D18*
%TO.C,C5*%
X39950000Y60400037D03*
X39950000Y59440037D03*
%TD*%
D19*
%TO.C,C4*%
X30110000Y67400000D03*
X30110000Y68360000D03*
%TD*%
D20*
%TO.C,C9*%
X30223801Y39774137D03*
X31183801Y39774137D03*
%TD*%
%TO.C,C8*%
X36527801Y44727137D03*
X37487801Y44727137D03*
%TD*%
D19*
%TO.C,C7*%
X16419801Y64242537D03*
X16419801Y65202537D03*
%TD*%
D21*
%TO.C,C11*%
X22030000Y39880000D03*
X21070000Y39880000D03*
%TD*%
D20*
%TO.C,C10*%
X36380000Y55950000D03*
X37340000Y55950000D03*
%TD*%
D21*
%TO.C,C12*%
X10430000Y45670000D03*
X9470000Y45670000D03*
%TD*%
%TO.C,C13*%
X10373801Y52918637D03*
X9413801Y52918637D03*
%TD*%
%TO.C,C14*%
X37240000Y48610000D03*
X36280000Y48610000D03*
%TD*%
D22*
%TO.C,D1*%
X32137500Y34180000D03*
X31167500Y34180000D03*
%TD*%
D23*
%TO.C,J5*%
X10358801Y38186637D03*
D24*
X9058801Y38186637D03*
%TD*%
D25*
%TO.C,R11*%
X9428801Y47902137D03*
X10448801Y47902137D03*
%TD*%
D26*
%TO.C,R8*%
X8830000Y64130000D03*
X8830000Y65150000D03*
%TD*%
D25*
%TO.C,R12*%
X9383801Y57744637D03*
X10403801Y57744637D03*
%TD*%
%TO.C,R15*%
X9500000Y43160000D03*
X10520000Y43160000D03*
%TD*%
D27*
%TO.C,R10*%
X10403801Y55331637D03*
X9383801Y55331637D03*
%TD*%
D26*
%TO.C,R9*%
X11290000Y64130000D03*
X11290000Y65150000D03*
%TD*%
D27*
%TO.C,R1*%
X10510000Y40680000D03*
X9490000Y40680000D03*
%TD*%
%TO.C,R2*%
X26658801Y39776037D03*
X25638801Y39776037D03*
%TD*%
D26*
%TO.C,R3*%
X34204801Y38368037D03*
X34204801Y39388037D03*
%TD*%
D27*
%TO.C,R4*%
X37280000Y51040000D03*
X36260000Y51040000D03*
%TD*%
D28*
%TO.C,J6*%
X16130000Y39890000D03*
D29*
X17430000Y39890000D03*
%TD*%
D26*
%TO.C,R14*%
X38980000Y38280000D03*
X38980000Y39300000D03*
%TD*%
D22*
%TO.C,D3*%
X36725000Y34210000D03*
X35755000Y34210000D03*
%TD*%
D26*
%TO.C,R17*%
X23100000Y63120000D03*
X23100000Y64140000D03*
%TD*%
D30*
%TO.C,R5*%
X31120000Y73290000D03*
X31120000Y72270000D03*
%TD*%
D26*
%TO.C,R13*%
X36600000Y38280000D03*
X36600000Y39300000D03*
%TD*%
D31*
%TO.C,Y1*%
X24460000Y36530000D03*
X22260000Y36530000D03*
X22260000Y34830000D03*
X24460000Y34830000D03*
%TD*%
D26*
%TO.C,R16*%
X24130000Y63120000D03*
X24130000Y64140000D03*
%TD*%
D32*
%TO.C,J7*%
X26010000Y69130000D03*
X20230000Y69130000D03*
D33*
X26370000Y67685000D03*
X25570000Y67685000D03*
D34*
X24370000Y67685000D03*
X23370000Y67685000D03*
X22870000Y67685000D03*
X21870000Y67685000D03*
D33*
X20670000Y67685000D03*
X19870000Y67685000D03*
X19870000Y67685000D03*
X20670000Y67685000D03*
D34*
X21370000Y67685000D03*
X22370000Y67685000D03*
X23870000Y67685000D03*
X24870000Y67685000D03*
D33*
X25570000Y67685000D03*
X26370000Y67685000D03*
D35*
X18800000Y72780000D03*
X27440000Y72780000D03*
D36*
X27440000Y68600000D03*
X18800000Y68600000D03*
%TD*%
D37*
%TO.C,P1*%
X14200000Y22250000D03*
X14200000Y21750000D03*
X14200000Y21250000D03*
X14200000Y20750000D03*
X14200000Y20250000D03*
X14200000Y19750000D03*
X14200000Y19250000D03*
X14200000Y18750000D03*
X14200000Y18250000D03*
X14200000Y17750000D03*
X14200000Y17250000D03*
X14200000Y16750000D03*
X14200000Y16250000D03*
X14200000Y15750000D03*
X14200000Y15250000D03*
X14200000Y14750000D03*
X14200000Y14250000D03*
X14200000Y13750000D03*
X14200000Y13250000D03*
X14200000Y12750000D03*
X14200000Y12250000D03*
X14200000Y11750000D03*
X14200000Y11250000D03*
X14200000Y10750000D03*
X33700000Y10750000D03*
X33700000Y11250000D03*
X33700000Y11750000D03*
X33700000Y12250000D03*
X33700000Y12750000D03*
X33700000Y13250000D03*
X33700000Y13750000D03*
X33700000Y14250000D03*
X33700000Y14750000D03*
X33700000Y15250000D03*
X33700000Y15750000D03*
X33700000Y16250000D03*
X33700000Y16750000D03*
X33700000Y17250000D03*
X33700000Y17750000D03*
X33700000Y18250000D03*
X33700000Y18750000D03*
X33700000Y19250000D03*
X33700000Y19750000D03*
X33700000Y20250000D03*
X33700000Y20750000D03*
X33700000Y21250000D03*
X33700000Y21750000D03*
X33700000Y22250000D03*
%TD*%
D18*
%TO.C,C2*%
X25980000Y36950000D03*
X25980000Y35990000D03*
%TD*%
D30*
%TO.C,R6*%
X30070000Y73290000D03*
X30070000Y72270000D03*
%TD*%
%TO.C,R7*%
X22070000Y64150000D03*
X22070000Y63130000D03*
%TD*%
D22*
%TO.C,D2*%
X34415000Y34180000D03*
X33445000Y34180000D03*
%TD*%
D19*
%TO.C,C1*%
X20740000Y34410000D03*
X20740000Y35370000D03*
%TD*%
D12*
%TO.C,J8*%
X2360000Y30470000D03*
D13*
X4900000Y30470000D03*
X2360000Y27930000D03*
X4900000Y27930000D03*
X2360000Y25390000D03*
X4900000Y25390000D03*
X2360000Y22850000D03*
X4900000Y22850000D03*
X2360000Y20310000D03*
X4900000Y20310000D03*
X2360000Y17770000D03*
X4900000Y17770000D03*
X2360000Y15230000D03*
X4900000Y15230000D03*
X2360000Y12690000D03*
X4900000Y12690000D03*
X2360000Y10150000D03*
X4900000Y10150000D03*
X2360000Y7610000D03*
X4900000Y7610000D03*
X2360000Y5070000D03*
X4900000Y5070000D03*
X2360000Y2530000D03*
X4900000Y2530000D03*
%TD*%
%TO.C,J9*%
X45540000Y2530000D03*
X43000000Y2530000D03*
X45540000Y5070000D03*
X43000000Y5070000D03*
X45540000Y7610000D03*
X43000000Y7610000D03*
X45540000Y10150000D03*
X43000000Y10150000D03*
X45540000Y12690000D03*
X43000000Y12690000D03*
X45540000Y15230000D03*
X43000000Y15230000D03*
X45540000Y17770000D03*
X43000000Y17770000D03*
X45540000Y20310000D03*
X43000000Y20310000D03*
X45540000Y22850000D03*
X43000000Y22850000D03*
X45540000Y25390000D03*
X43000000Y25390000D03*
X45540000Y27930000D03*
X43000000Y27930000D03*
X45540000Y30470000D03*
D12*
X43000000Y30470000D03*
%TD*%
M02*
