M48
; DRILL file {KiCad (6.0.11)} date 2023年02月23日 星期四 12时45分07秒
; FORMAT={-:-/ absolute / metric / decimal}
; #@! TF.CreationDate,2023-02-23T12:45:07+08:00
; #@! TF.GenerationSoftware,Kicad,Pcbnew,(6.0.11)
; #@! TF.FileFunction,Plated,1,2,PTH
FMAT,2
METRIC
; #@! TA.AperFunction,Plated,PTH,ViaDrill
T1C0.300
; #@! TA.AperFunction,Plated,PTH,ComponentDrill
T2C0.600
; #@! TA.AperFunction,Plated,PTH,ComponentDrill
T3C1.000
%
G90
G05
T1
X0.59Y33.11
X1.443Y33.11
X2.297Y33.11
X3.15Y33.11
X4.004Y33.11
X4.857Y33.11
X5.711Y33.11
X6.564Y33.11
X6.89Y55.36
X6.95Y58.22
X7.16Y56.82
X7.24Y64.59
X7.418Y33.11
X7.69Y54.65
X8.271Y33.11
X8.36Y58.11
X9.125Y33.11
X9.978Y33.11
X10.22Y67.94
X10.83Y41.59
X10.831Y33.11
X10.98Y39.78
X11.685Y33.11
X12.06Y47.27
X12.538Y33.11
X13.025Y48.499
X13.29Y45.58
X13.392Y33.11
X13.47Y60.53
X14.245Y33.11
X15.099Y33.11
X15.952Y33.11
X16.806Y33.11
X17.0Y63.28
X17.289Y49.71
X17.61Y56.26
X17.659Y33.11
X17.869Y61.579
X18.38Y52.97
X18.513Y33.11
X18.78Y39.89
X19.0Y62.82
X19.314Y50.45
X19.366Y33.11
X19.91Y62.02
X20.219Y33.11
X20.236Y50.414
X20.47Y39.07
X20.68Y67.8
X21.073Y33.11
X21.57Y57.64
X21.926Y33.11
X22.78Y33.11
X23.12Y65.49
X23.41Y69.74
X23.633Y33.11
X23.885Y55.399
X23.915Y54.7
X24.025Y71.655
X24.22Y47.33
X24.393Y71.06
X24.49Y53.96
X24.85Y40.54
X25.169Y54.125
X25.2Y65.43
X25.34Y33.11
X25.57Y67.685
X25.7Y61.22
X25.9Y56.59
X25.943Y48.868
X26.17Y49.53
X26.194Y33.11
X26.531Y46.622
X26.561Y62.062
X26.57Y47.32
X26.762Y41.697
X26.94Y62.65
X27.047Y33.11
X27.901Y33.11
X28.38Y39.37
X28.54Y46.44
X28.754Y33.11
X29.06Y57.59
X29.2Y71.605
X29.607Y33.11
X29.84Y53.92
X30.461Y33.11
X30.85Y71.386
X32.168Y33.11
X32.54Y35.29
X32.695Y39.63
X33.021Y33.11
X33.875Y33.11
X34.18Y56.55
X34.19Y55.72
X34.48Y55.084
X34.728Y33.11
X34.86Y35.33
X34.99Y48.62
X35.039Y54.545
X35.582Y33.11
X35.79Y53.99
X36.435Y33.11
X37.2Y35.31
X37.289Y33.11
X37.3Y46.42
X37.68Y62.96
X37.7Y64.2
X38.142Y33.11
X38.51Y60.09
X38.56Y58.4
X38.995Y33.11
X39.33Y52.04
X39.38Y62.8
X39.849Y33.11
X40.095Y53.075
X40.69Y52.49
X40.702Y33.11
X41.53Y60.92
X41.556Y33.11
X42.409Y33.11
X43.263Y33.11
X44.116Y33.11
X44.97Y33.11
X45.823Y33.11
X46.677Y33.11
X47.53Y33.11
T3
X2.36Y30.47
X2.36Y27.93
X2.36Y25.39
X2.36Y22.85
X2.36Y20.31
X2.36Y17.77
X2.36Y15.23
X2.36Y12.69
X2.36Y10.15
X2.36Y7.61
X2.36Y5.07
X2.36Y2.53
X2.4Y66.51
X2.4Y63.97
X2.4Y61.43
X2.4Y58.89
X2.4Y56.35
X2.4Y53.81
X2.4Y51.27
X2.4Y48.73
X2.4Y46.19
X2.4Y43.65
X2.4Y41.11
X2.4Y38.57
X3.2Y71.12
X4.9Y30.47
X4.9Y27.93
X4.9Y25.39
X4.9Y22.85
X4.9Y20.31
X4.9Y17.77
X4.9Y15.23
X4.9Y12.69
X4.9Y10.15
X4.9Y7.61
X4.9Y5.07
X4.9Y2.53
X4.94Y66.51
X4.94Y63.97
X4.94Y61.43
X4.94Y58.89
X4.94Y56.35
X4.94Y53.81
X4.94Y51.27
X4.94Y48.73
X4.94Y46.19
X4.94Y43.65
X4.94Y41.11
X4.94Y38.57
X5.74Y71.12
X8.28Y71.12
X10.82Y71.12
X39.74Y71.145
X42.28Y71.145
X43.0Y30.47
X43.0Y27.93
X43.0Y25.39
X43.0Y22.85
X43.0Y20.31
X43.0Y17.77
X43.0Y15.23
X43.0Y12.69
X43.0Y10.15
X43.0Y7.61
X43.0Y5.07
X43.0Y2.53
X43.04Y66.51
X43.04Y63.97
X43.04Y61.43
X43.04Y58.89
X43.04Y56.35
X43.04Y53.81
X43.04Y51.27
X43.04Y48.73
X43.04Y46.19
X43.04Y43.65
X43.04Y41.11
X43.04Y38.57
X44.82Y71.145
X45.54Y30.47
X45.54Y27.93
X45.54Y25.39
X45.54Y22.85
X45.54Y20.31
X45.54Y17.77
X45.54Y15.23
X45.54Y12.69
X45.54Y10.15
X45.54Y7.61
X45.54Y5.07
X45.54Y2.53
X45.58Y66.51
X45.58Y63.97
X45.58Y61.43
X45.58Y58.89
X45.58Y56.35
X45.58Y53.81
X45.58Y51.27
X45.58Y48.73
X45.58Y46.19
X45.58Y43.65
X45.58Y41.11
X45.58Y38.57
T2
G00X18.8Y72.48
M15
G01X18.8Y73.08
M16
G05
G00X18.8Y68.05
M15
G01X18.8Y69.15
M16
G05
G00X27.44Y72.48
M15
G01X27.44Y73.08
M16
G05
G00X27.44Y68.05
M15
G01X27.44Y69.15
M16
G05
T0
M30
