%TF.GenerationSoftware,KiCad,Pcbnew,(6.0.11)*%
%TF.CreationDate,2023-02-23T12:45:07+08:00*%
%TF.ProjectId,nand_programmator,6e616e64-5f70-4726-9f67-72616d6d6174,v3.4*%
%TF.SameCoordinates,Original*%
%TF.FileFunction,Paste,Top*%
%TF.FilePolarity,Positive*%
%FSLAX46Y46*%
G04 Gerber Fmt 4.6, Leading zero omitted, Abs format (unit mm)*
G04 Created by KiCad (PCBNEW (6.0.11)) date 2023-02-23 12:45:07*
%MOMM*%
%LPD*%
G01*
G04 APERTURE LIST*
G04 Aperture macros list*
%AMRoundRect*
0 Rectangle with rounded corners*
0 $1 Rounding radius*
0 $2 $3 $4 $5 $6 $7 $8 $9 X,Y pos of 4 corners*
0 Add a 4 corners polygon primitive as box body*
4,1,4,$2,$3,$4,$5,$6,$7,$8,$9,$2,$3,0*
0 Add four circle primitives for the rounded corners*
1,1,$1+$1,$2,$3*
1,1,$1+$1,$4,$5*
1,1,$1+$1,$6,$7*
1,1,$1+$1,$8,$9*
0 Add four rect primitives between the rounded corners*
20,1,$1+$1,$2,$3,$4,$5,0*
20,1,$1+$1,$4,$5,$6,$7,0*
20,1,$1+$1,$6,$7,$8,$9,0*
20,1,$1+$1,$8,$9,$2,$3,0*%
G04 Aperture macros list end*
%ADD10R,0.280000X1.500000*%
%ADD11R,1.500000X0.280000*%
%ADD12R,2.000000X1.500000*%
%ADD13R,2.000000X3.800000*%
%ADD14RoundRect,0.225000X-0.250000X0.225000X-0.250000X-0.225000X0.250000X-0.225000X0.250000X0.225000X0*%
%ADD15RoundRect,0.225000X0.250000X-0.225000X0.250000X0.225000X-0.250000X0.225000X-0.250000X-0.225000X0*%
%ADD16RoundRect,0.140000X-0.170000X0.140000X-0.170000X-0.140000X0.170000X-0.140000X0.170000X0.140000X0*%
%ADD17RoundRect,0.140000X0.170000X-0.140000X0.170000X0.140000X-0.170000X0.140000X-0.170000X-0.140000X0*%
%ADD18RoundRect,0.140000X-0.140000X-0.170000X0.140000X-0.170000X0.140000X0.170000X-0.140000X0.170000X0*%
%ADD19RoundRect,0.140000X0.140000X0.170000X-0.140000X0.170000X-0.140000X-0.170000X0.140000X-0.170000X0*%
%ADD20RoundRect,0.147500X0.147500X0.172500X-0.147500X0.172500X-0.147500X-0.172500X0.147500X-0.172500X0*%
%ADD21RoundRect,0.135000X-0.135000X-0.185000X0.135000X-0.185000X0.135000X0.185000X-0.135000X0.185000X0*%
%ADD22RoundRect,0.135000X0.185000X-0.135000X0.185000X0.135000X-0.185000X0.135000X-0.185000X-0.135000X0*%
%ADD23RoundRect,0.135000X0.135000X0.185000X-0.135000X0.185000X-0.135000X-0.185000X0.135000X-0.185000X0*%
%ADD24RoundRect,0.135000X-0.185000X0.135000X-0.185000X-0.135000X0.185000X-0.135000X0.185000X0.135000X0*%
%ADD25R,1.400000X1.200000*%
%ADD26R,0.600000X1.450000*%
%ADD27R,0.300000X1.450000*%
%ADD28R,1.100000X0.250000*%
G04 APERTURE END LIST*
D10*
%TO.C,U2*%
X17989801Y43877537D03*
X18489801Y43877537D03*
X18989801Y43877537D03*
X19489801Y43877537D03*
X19989801Y43877537D03*
X20489801Y43877537D03*
X20989801Y43877537D03*
X21489801Y43877537D03*
X21989801Y43877537D03*
X22489801Y43877537D03*
X22989801Y43877537D03*
X23489801Y43877537D03*
X23989801Y43877537D03*
X24489801Y43877537D03*
X24989801Y43877537D03*
X25489801Y43877537D03*
X25989801Y43877537D03*
X26489801Y43877537D03*
X26989801Y43877537D03*
X27489801Y43877537D03*
X27989801Y43877537D03*
X28489801Y43877537D03*
X28989801Y43877537D03*
X29489801Y43877537D03*
X29989801Y43877537D03*
D11*
X31889801Y45777537D03*
X31889801Y46277537D03*
X31889801Y46777537D03*
X31889801Y47277537D03*
X31889801Y47777537D03*
X31889801Y48277537D03*
X31889801Y48777537D03*
X31889801Y49277537D03*
X31889801Y49777537D03*
X31889801Y50277537D03*
X31889801Y50777537D03*
X31889801Y51277537D03*
X31889801Y51777537D03*
X31889801Y52277537D03*
X31889801Y52777537D03*
X31889801Y53277537D03*
X31889801Y53777537D03*
X31889801Y54277537D03*
X31889801Y54777537D03*
X31889801Y55277537D03*
X31889801Y55777537D03*
X31889801Y56277537D03*
X31889801Y56777537D03*
X31889801Y57277537D03*
X31889801Y57777537D03*
D10*
X29989801Y59677537D03*
X29489801Y59677537D03*
X28989801Y59677537D03*
X28489801Y59677537D03*
X27989801Y59677537D03*
X27489801Y59677537D03*
X26989801Y59677537D03*
X26489801Y59677537D03*
X25989801Y59677537D03*
X25489801Y59677537D03*
X24989801Y59677537D03*
X24489801Y59677537D03*
X23989801Y59677537D03*
X23489801Y59677537D03*
X22989801Y59677537D03*
X22489801Y59677537D03*
X21989801Y59677537D03*
X21489801Y59677537D03*
X20989801Y59677537D03*
X20489801Y59677537D03*
X19989801Y59677537D03*
X19489801Y59677537D03*
X18989801Y59677537D03*
X18489801Y59677537D03*
X17989801Y59677537D03*
D11*
X16089801Y57777537D03*
X16089801Y57277537D03*
X16089801Y56777537D03*
X16089801Y56277537D03*
X16089801Y55777537D03*
X16089801Y55277537D03*
X16089801Y54777537D03*
X16089801Y54277537D03*
X16089801Y53777537D03*
X16089801Y53277537D03*
X16089801Y52777537D03*
X16089801Y52277537D03*
X16089801Y51777537D03*
X16089801Y51277537D03*
X16089801Y50777537D03*
X16089801Y50277537D03*
X16089801Y49777537D03*
X16089801Y49277537D03*
X16089801Y48777537D03*
X16089801Y48277537D03*
X16089801Y47777537D03*
X16089801Y47277537D03*
X16089801Y46777537D03*
X16089801Y46277537D03*
X16089801Y45777537D03*
%TD*%
D12*
%TO.C,U1*%
X33469801Y67820037D03*
X33469801Y65520037D03*
X33469801Y63220037D03*
D13*
X39769801Y65520037D03*
%TD*%
D14*
%TO.C,C6*%
X36800000Y60225000D03*
X36800000Y58675000D03*
%TD*%
D15*
%TO.C,C3*%
X30119801Y63945037D03*
X30119801Y65495037D03*
%TD*%
D16*
%TO.C,C5*%
X39950000Y60400037D03*
X39950000Y59440037D03*
%TD*%
D17*
%TO.C,C4*%
X30110000Y67400000D03*
X30110000Y68360000D03*
%TD*%
D18*
%TO.C,C9*%
X30223801Y39774137D03*
X31183801Y39774137D03*
%TD*%
%TO.C,C8*%
X36527801Y44727137D03*
X37487801Y44727137D03*
%TD*%
D17*
%TO.C,C7*%
X16419801Y64242537D03*
X16419801Y65202537D03*
%TD*%
D19*
%TO.C,C11*%
X22030000Y39880000D03*
X21070000Y39880000D03*
%TD*%
D18*
%TO.C,C10*%
X36380000Y55950000D03*
X37340000Y55950000D03*
%TD*%
D19*
%TO.C,C12*%
X10430000Y45670000D03*
X9470000Y45670000D03*
%TD*%
%TO.C,C13*%
X10373801Y52918637D03*
X9413801Y52918637D03*
%TD*%
%TO.C,C14*%
X37240000Y48610000D03*
X36280000Y48610000D03*
%TD*%
D20*
%TO.C,D1*%
X32137500Y34180000D03*
X31167500Y34180000D03*
%TD*%
D21*
%TO.C,R11*%
X9428801Y47902137D03*
X10448801Y47902137D03*
%TD*%
D22*
%TO.C,R8*%
X8830000Y64130000D03*
X8830000Y65150000D03*
%TD*%
D21*
%TO.C,R12*%
X9383801Y57744637D03*
X10403801Y57744637D03*
%TD*%
%TO.C,R15*%
X9500000Y43160000D03*
X10520000Y43160000D03*
%TD*%
D23*
%TO.C,R10*%
X10403801Y55331637D03*
X9383801Y55331637D03*
%TD*%
D22*
%TO.C,R9*%
X11290000Y64130000D03*
X11290000Y65150000D03*
%TD*%
D23*
%TO.C,R1*%
X10510000Y40680000D03*
X9490000Y40680000D03*
%TD*%
%TO.C,R2*%
X26658801Y39776037D03*
X25638801Y39776037D03*
%TD*%
D22*
%TO.C,R3*%
X34204801Y38368037D03*
X34204801Y39388037D03*
%TD*%
D23*
%TO.C,R4*%
X37280000Y51040000D03*
X36260000Y51040000D03*
%TD*%
D22*
%TO.C,R14*%
X38980000Y38280000D03*
X38980000Y39300000D03*
%TD*%
D20*
%TO.C,D3*%
X36725000Y34210000D03*
X35755000Y34210000D03*
%TD*%
D22*
%TO.C,R17*%
X23100000Y63120000D03*
X23100000Y64140000D03*
%TD*%
D24*
%TO.C,R5*%
X31120000Y73290000D03*
X31120000Y72270000D03*
%TD*%
D22*
%TO.C,R13*%
X36600000Y38280000D03*
X36600000Y39300000D03*
%TD*%
D25*
%TO.C,Y1*%
X24460000Y36530000D03*
X22260000Y36530000D03*
X22260000Y34830000D03*
X24460000Y34830000D03*
%TD*%
D22*
%TO.C,R16*%
X24130000Y63120000D03*
X24130000Y64140000D03*
%TD*%
D26*
%TO.C,J7*%
X26370000Y67685000D03*
X25570000Y67685000D03*
D27*
X24370000Y67685000D03*
X23370000Y67685000D03*
X22870000Y67685000D03*
X21870000Y67685000D03*
D26*
X20670000Y67685000D03*
X19870000Y67685000D03*
X19870000Y67685000D03*
X20670000Y67685000D03*
D27*
X21370000Y67685000D03*
X22370000Y67685000D03*
X23870000Y67685000D03*
X24870000Y67685000D03*
D26*
X25570000Y67685000D03*
X26370000Y67685000D03*
%TD*%
D28*
%TO.C,P1*%
X14200000Y22250000D03*
X14200000Y21750000D03*
X14200000Y21250000D03*
X14200000Y20750000D03*
X14200000Y20250000D03*
X14200000Y19750000D03*
X14200000Y19250000D03*
X14200000Y18750000D03*
X14200000Y18250000D03*
X14200000Y17750000D03*
X14200000Y17250000D03*
X14200000Y16750000D03*
X14200000Y16250000D03*
X14200000Y15750000D03*
X14200000Y15250000D03*
X14200000Y14750000D03*
X14200000Y14250000D03*
X14200000Y13750000D03*
X14200000Y13250000D03*
X14200000Y12750000D03*
X14200000Y12250000D03*
X14200000Y11750000D03*
X14200000Y11250000D03*
X14200000Y10750000D03*
X33700000Y10750000D03*
X33700000Y11250000D03*
X33700000Y11750000D03*
X33700000Y12250000D03*
X33700000Y12750000D03*
X33700000Y13250000D03*
X33700000Y13750000D03*
X33700000Y14250000D03*
X33700000Y14750000D03*
X33700000Y15250000D03*
X33700000Y15750000D03*
X33700000Y16250000D03*
X33700000Y16750000D03*
X33700000Y17250000D03*
X33700000Y17750000D03*
X33700000Y18250000D03*
X33700000Y18750000D03*
X33700000Y19250000D03*
X33700000Y19750000D03*
X33700000Y20250000D03*
X33700000Y20750000D03*
X33700000Y21250000D03*
X33700000Y21750000D03*
X33700000Y22250000D03*
%TD*%
D16*
%TO.C,C2*%
X25980000Y36950000D03*
X25980000Y35990000D03*
%TD*%
D24*
%TO.C,R6*%
X30070000Y73290000D03*
X30070000Y72270000D03*
%TD*%
%TO.C,R7*%
X22070000Y64150000D03*
X22070000Y63130000D03*
%TD*%
D20*
%TO.C,D2*%
X34415000Y34180000D03*
X33445000Y34180000D03*
%TD*%
D17*
%TO.C,C1*%
X20740000Y34410000D03*
X20740000Y35370000D03*
%TD*%
M02*
